{
  "accessors": [
    {
      "bufferView": 2,
      "componentType": 5126,
      "count": 65532,
      "max": [
        5.9473981857299805,
        5.565399169921875,
        30.141611099243164
      ],
      "min": [
        -5.6324782371521,
        -5.612074851989746,
        9.999999974752427e-07
      ],
      "type": "VEC3"
    },
    {
      "bufferView": 2,
      "byteOffset": 786384,
      "componentType": 5126,
      "count": 65532,
      "max": [
        0.9999785423278809,
        0.9999654293060303,
        0.9999984502792358
      ],
      "min": [
        -0.9999583959579468,
        -0.9999927282333374,
        -1.0
      ],
      "type": "VEC3"
    },
    {
      "bufferView": 1,
      "componentType": 5126,
      "count": 65532,
      "max": [
        0.9996430277824402,
        0.9929199814796448
      ],
      "min": [
        0.00024399999529123306,
        0.00024900000425986946
      ],
      "type": "VEC2"
    },
    {
      "bufferView": 0,
      "componentType": 5125,
      "count": 303831,
      "type": "SCALAR"
    },
    {
      "bufferView": 2,
      "byteOffset": 1572768,
      "componentType": 5126,
      "count": 65532,
      "max": [
        6.322598934173584,
        4.657096862792969,
        26.122156143188477
      ],
      "min": [
        -4.368854999542236,
        -4.2846198081970215,
        0.34292399883270264
      ],
      "type": "VEC3"
    },
    {
      "bufferView": 2,
      "byteOffset": 2359152,
      "componentType": 5126,
      "count": 65532,
      "max": [
        0.999998927116394,
        0.9999984502792358,
        0.9999960660934448
      ],
      "min": [
        -0.9999698400497437,
        -0.9999933242797852,
        -0.9999916553497314
      ],
      "type": "VEC3"
    },
    {
      "bufferView": 1,
      "byteOffset": 524256,
      "componentType": 5126,
      "count": 65532,
      "max": [
        0.9997259974479675,
        0.8571779727935791
      ],
      "min": [
        0.00024399999529123306,
        0.0002469999890308827
      ],
      "type": "VEC2"
    },
    {
      "bufferView": 0,
      "byteOffset": 1215324,
      "componentType": 5125,
      "count": 310779,
      "type": "SCALAR"
    },
    {
      "bufferView": 2,
      "byteOffset": 3145536,
      "componentType": 5126,
      "count": 65532,
      "max": [
        5.951290130615234,
        4.64895486831665,
        12.780914306640625
      ],
      "min": [
        -4.3729939460754395,
        -5.6074748039245605,
        9.999999974752427e-07
      ],
      "type": "VEC3"
    },
    {
      "bufferView": 2,
      "byteOffset": 3931920,
      "componentType": 5126,
      "count": 65532,
      "max": [
        0.9999992847442627,
        0.9999948740005493,
        0.9999994039535522
      ],
      "min": [
        -0.999906063079834,
        -0.9999966621398926,
        -0.999943733215332
      ],
      "type": "VEC3"
    },
    {
      "bufferView": 1,
      "byteOffset": 1048512,
      "componentType": 5126,
      "count": 65532,
      "max": [
        0.9996830224990845,
        0.5104979872703552
      ],
      "min": [
        0.00024399999529123306,
        0.00020399999630171806
      ],
      "type": "VEC2"
    },
    {
      "bufferView": 0,
      "byteOffset": 2458440,
      "componentType": 5125,
      "count": 296355,
      "type": "SCALAR"
    },
    {
      "bufferView": 2,
      "byteOffset": 4718304,
      "componentType": 5126,
      "count": 65534,
      "max": [
        6.3490118980407715,
        3.8514180183410645,
        26.101171493530273
      ],
      "min": [
        -4.398021221160889,
        -5.601352214813232,
        9.999999974752427e-07
      ],
      "type": "VEC3"
    },
    {
      "bufferView": 2,
      "byteOffset": 5504712,
      "componentType": 5126,
      "count": 65534,
      "max": [
        0.9999873638153076,
        0.9999686479568481,
        0.9999994039535522
      ],
      "min": [
        -0.9999717473983765,
        -0.999997615814209,
        -0.9999198913574219
      ],
      "type": "VEC3"
    },
    {
      "bufferView": 1,
      "byteOffset": 1572768,
      "componentType": 5126,
      "count": 65534,
      "max": [
        0.9997050166130066,
        0.8542479872703552
      ],
      "min": [
        0.00024399999529123306,
        0.0002460000105202198
      ],
      "type": "VEC2"
    },
    {
      "bufferView": 0,
      "byteOffset": 3643860,
      "componentType": 5125,
      "count": 263532,
      "type": "SCALAR"
    },
    {
      "bufferView": 2,
      "byteOffset": 6291120,
      "componentType": 5126,
      "count": 4038,
      "max": [
        6.332056999206543,
        1.7890549898147583,
        26.051191329956055
      ],
      "min": [
        -2.8945701122283936,
        -4.734889030456543,
        12.719247817993164
      ],
      "type": "VEC3"
    },
    {
      "bufferView": 2,
      "byteOffset": 6339576,
      "componentType": 5126,
      "count": 4038,
      "max": [
        0.9999980926513672,
        0.9972659349441528,
        0.9996858239173889
      ],
      "min": [
        -0.9998589158058167,
        -0.9999793767929077,
        -0.9961525201797485
      ],
      "type": "VEC3"
    },
    {
      "bufferView": 1,
      "byteOffset": 2097040,
      "componentType": 5126,
      "count": 4038,
      "max": [
        0.999288022518158,
        0.8182039856910706
      ],
      "min": [
        0.00024399999529123306,
        0.00024399999529123306
      ],
      "type": "VEC2"
    },
    {
      "bufferView": 0,
      "byteOffset": 4697988,
      "componentType": 5125,
      "count": 12534,
      "type": "SCALAR"
    }
  ],
  "asset": {
    "extras": {
      "author": "renderpunk (https://sketchfab.com/renderpunk)",
      "license": "CC-BY-SA-4.0 (http://creativecommons.org/licenses/by-sa/4.0/)",
      "source": "https://sketchfab.com/3d-models/orthodox-angel-statue-scan-51b89c785126434d939aa736da9c402c",
      "title": "Orthodox Angel Statue Scan"
    },
    "generator": "Sketchfab-12.64.0",
    "version": "2.0"
  },
  "bufferViews": [
    {
      "buffer": 0,
      "byteLength": 4748124,
      "name": "floatBufferViews",
      "target": 34963
    },
    {
      "buffer": 0,
      "byteLength": 2129344,
      "byteOffset": 4748124,
      "byteStride": 8,
      "name": "floatBufferViews",
      "target": 34962
    },
    {
      "buffer": 0,
      "byteLength": 6388032,
      "byteOffset": 6877468,
      "byteStride": 12,
      "name": "floatBufferViews",
      "target": 34962
    }
  ],
  "buffers": [
    {
      "byteLength": 13265500,
      "uri": "scene.bin"
    }
  ],
  "images": [
    {
      "uri": "textures/angel2_Model_6_u1_v1_baseColor.jpeg"
    }
  ],
  "materials": [
    {
      "doubleSided": true,
      "name": "angel2_Model_6_u1_v1",
      "pbrMetallicRoughness": {
        "baseColorTexture": {
          "index": 0
        },
        "metallicFactor": 0.0,
        "roughnessFactor": 0.5858880675687995
      }
    }
  ],
  "meshes": [
    {
      "name": "Object_0",
      "primitives": [
        {
          "attributes": {
            "NORMAL": 1,
            "POSITION": 0,
            "TEXCOORD_0": 2
          },
          "indices": 3,
          "material": 0,
          "mode": 4
        }
      ]
    },
    {
      "name": "Object_1",
      "primitives": [
        {
          "attributes": {
            "NORMAL": 5,
            "POSITION": 4,
            "TEXCOORD_0": 6
          },
          "indices": 7,
          "material": 0,
          "mode": 4
        }
      ]
    },
    {
      "name": "Object_2",
      "primitives": [
        {
          "attributes": {
            "NORMAL": 9,
            "POSITION": 8,
            "TEXCOORD_0": 10
          },
          "indices": 11,
          "material": 0,
          "mode": 4
        }
      ]
    },
    {
      "name": "Object_3",
      "primitives": [
        {
          "attributes": {
            "NORMAL": 13,
            "POSITION": 12,
            "TEXCOORD_0": 14
          },
          "indices": 15,
          "material": 0,
          "mode": 4
        }
      ]
    },
    {
      "name": "Object_4",
      "primitives": [
        {
          "attributes": {
            "NORMAL": 17,
            "POSITION": 16,
            "TEXCOORD_0": 18
          },
          "indices": 19,
          "material": 0,
          "mode": 4
        }
      ]
    }
  ],
  "nodes": [
    {
      "children": [
        1
      ],
      "matrix": [
        0.050154685974121094,
        0.0,
        0.0,
        0.0,
        0.0,
        1.1136577432262727e-17,
        -0.050154685974121094,
        0.0,
        0.0,
        0.050154685974121094,
        1.1136577432262727e-17,
        0.0,
        0.0,
        0.0,
        0.0,
        1.0
      ],
      "name": "Sketchfab_model"
    },
    {
      "children": [
        2,
        3,
        4,
        5,
        6
      ],
      "name": "lowres angel.obj.cleaner.materialmerger.gles"
    },
    {
      "mesh": 0,
      "name": "Object_2"
    },
    {
      "mesh": 1,
      "name": "Object_3"
    },
    {
      "mesh": 2,
      "name": "Object_4"
    },
    {
      "mesh": 3,
      "name": "Object_5"
    },
    {
      "mesh": 4,
      "name": "Object_6"
    }
  ],
  "samplers": [
    {
      "magFilter": 9729,
      "minFilter": 9987,
      "wrapS": 10497,
      "wrapT": 10497
    }
  ],
  "scene": 0,
  "scenes": [
    {
      "name": "Sketchfab_Scene",
      "nodes": [
        0
      ]
    }
  ],
  "textures": [
    {
      "sampler": 0,
      "source": 0
    }
  ]
}
